<mxfile host="Electron" agent="Mozilla/5.0 (Windows NT 10.0; Win64; x64) AppleWebKit/537.36 (KHTML, like Gecko) draw.io/24.7.17 Chrome/128.0.6613.36 Electron/32.0.1 Safari/537.36" version="24.7.17" pages="8">
  <diagram id="pX8Tv-x01PeFVeu3sFxx" name="mono">
    <mxGraphModel dx="1098" dy="988" grid="1" gridSize="10" guides="1" tooltips="1" connect="1" arrows="1" fold="1" page="1" pageScale="1" pageWidth="850" pageHeight="1100" math="0" shadow="0">
      <root>
        <mxCell id="0" />
        <mxCell id="1" parent="0" />
        <mxCell id="b7-HnMju_qQHTWivN_Ck-1" value="Database" style="shape=datastore;whiteSpace=wrap;html=1;" vertex="1" parent="1">
          <mxGeometry x="520" y="290" width="70" height="80" as="geometry" />
        </mxCell>
        <mxCell id="b7-HnMju_qQHTWivN_Ck-2" value="User Interface" style="html=1;dashed=0;whiteSpace=wrap;shape=mxgraph.dfd.start;fillColor=#fa6800;fontColor=#000000;strokeColor=#C73500;fontStyle=1" vertex="1" parent="1">
          <mxGeometry x="305" y="260" width="110" height="40" as="geometry" />
        </mxCell>
        <mxCell id="b7-HnMju_qQHTWivN_Ck-3" value="Business Layer" style="html=1;dashed=0;whiteSpace=wrap;shape=mxgraph.dfd.start;fontStyle=1;fillColor=#f0a30a;fontColor=#000000;strokeColor=#BD7000;" vertex="1" parent="1">
          <mxGeometry x="305" y="310" width="110" height="40" as="geometry" />
        </mxCell>
        <mxCell id="b7-HnMju_qQHTWivN_Ck-4" value="Data Interface" style="html=1;dashed=0;whiteSpace=wrap;shape=mxgraph.dfd.start;fontStyle=1;fillColor=#e3c800;fontColor=#000000;strokeColor=#B09500;" vertex="1" parent="1">
          <mxGeometry x="305" y="360" width="110" height="40" as="geometry" />
        </mxCell>
        <mxCell id="b7-HnMju_qQHTWivN_Ck-5" value="" style="rounded=1;whiteSpace=wrap;html=1;strokeWidth=3;perimeterSpacing=0;dashed=1;fillColor=none;" vertex="1" parent="1">
          <mxGeometry x="290" y="240" width="140" height="180" as="geometry" />
        </mxCell>
        <mxCell id="b7-HnMju_qQHTWivN_Ck-6" value="" style="endArrow=classic;html=1;rounded=0;" edge="1" parent="1">
          <mxGeometry width="50" height="50" relative="1" as="geometry">
            <mxPoint x="460" y="320" as="sourcePoint" />
            <mxPoint x="500" y="320" as="targetPoint" />
          </mxGeometry>
        </mxCell>
        <mxCell id="b7-HnMju_qQHTWivN_Ck-7" value="" style="endArrow=classic;html=1;rounded=0;" edge="1" parent="1">
          <mxGeometry width="50" height="50" relative="1" as="geometry">
            <mxPoint x="500.5" y="340" as="sourcePoint" />
            <mxPoint x="460" y="340" as="targetPoint" />
          </mxGeometry>
        </mxCell>
        <mxCell id="b7-HnMju_qQHTWivN_Ck-8" value="&lt;font style=&quot;font-size: 17px;&quot;&gt;&lt;b&gt;Monolithic&lt;/b&gt;&lt;/font&gt;&lt;div&gt;&lt;font style=&quot;font-size: 17px;&quot;&gt;&lt;b&gt;Architecture&lt;/b&gt;&lt;/font&gt;&lt;/div&gt;" style="text;html=1;align=center;verticalAlign=middle;resizable=0;points=[];autosize=1;strokeColor=none;fillColor=none;" vertex="1" parent="1">
          <mxGeometry x="140" y="305" width="120" height="50" as="geometry" />
        </mxCell>
        <mxCell id="b7-HnMju_qQHTWivN_Ck-9" value="&lt;font style=&quot;font-size: 13px;&quot;&gt;Single Server&lt;/font&gt;" style="text;html=1;align=center;verticalAlign=middle;resizable=0;points=[];autosize=1;strokeColor=none;fillColor=none;rotation=0;" vertex="1" parent="1">
          <mxGeometry x="315" y="420" width="100" height="30" as="geometry" />
        </mxCell>
        <mxCell id="b7-HnMju_qQHTWivN_Ck-10" value="" style="rounded=0;whiteSpace=wrap;html=1;opacity=0;rotation=-90;" vertex="1" parent="1">
          <mxGeometry x="250" y="100" width="240" height="480" as="geometry" />
        </mxCell>
      </root>
    </mxGraphModel>
  </diagram>
  <diagram name="micro" id="I1JmYus51bPRpTJSfx-f">
    <mxGraphModel dx="1098" dy="988" grid="1" gridSize="10" guides="1" tooltips="1" connect="1" arrows="1" fold="1" page="1" pageScale="1" pageWidth="850" pageHeight="1100" math="0" shadow="0">
      <root>
        <mxCell id="0" />
        <mxCell id="1" parent="0" />
        <mxCell id="V1wCiQhz8U4Y6uBU5TtN-47" style="edgeStyle=orthogonalEdgeStyle;rounded=0;orthogonalLoop=1;jettySize=auto;html=1;exitX=0.5;exitY=0.5;exitDx=0;exitDy=20;exitPerimeter=0;" parent="1" source="sDq0VXqV6MLcIJx__lWi-2" target="V1wCiQhz8U4Y6uBU5TtN-37" edge="1">
          <mxGeometry relative="1" as="geometry" />
        </mxCell>
        <mxCell id="sDq0VXqV6MLcIJx__lWi-2" value="UI Microservice" style="html=1;dashed=0;whiteSpace=wrap;shape=mxgraph.dfd.start;fillColor=#fa6800;fontColor=#000000;strokeColor=#C73500;fontStyle=1" parent="1" vertex="1">
          <mxGeometry x="300" y="270" width="120" height="40" as="geometry" />
        </mxCell>
        <mxCell id="sDq0VXqV6MLcIJx__lWi-3" value="Business Logic&amp;nbsp;&lt;span style=&quot;background-color: initial;&quot;&gt;component microservice&lt;/span&gt;" style="html=1;dashed=0;whiteSpace=wrap;shape=mxgraph.dfd.start;fontStyle=1;fillColor=#f0a30a;fontColor=#000000;strokeColor=#BD7000;" parent="1" vertex="1">
          <mxGeometry x="40" y="370" width="120" height="50" as="geometry" />
        </mxCell>
        <mxCell id="sDq0VXqV6MLcIJx__lWi-9" value="&lt;font style=&quot;font-size: 17px;&quot;&gt;&lt;b&gt;Microservices&lt;/b&gt;&lt;/font&gt;&lt;div&gt;&lt;font style=&quot;font-size: 17px;&quot;&gt;&lt;b&gt;Architecture&lt;/b&gt;&lt;/font&gt;&lt;/div&gt;" style="text;html=1;align=center;verticalAlign=middle;resizable=0;points=[];autosize=1;strokeColor=none;fillColor=none;" parent="1" vertex="1">
          <mxGeometry x="290" y="210" width="140" height="50" as="geometry" />
        </mxCell>
        <mxCell id="V1wCiQhz8U4Y6uBU5TtN-22" value="Database" style="shape=datastore;whiteSpace=wrap;html=1;" parent="1" vertex="1">
          <mxGeometry x="72.5" y="490" width="55" height="50" as="geometry" />
        </mxCell>
        <mxCell id="V1wCiQhz8U4Y6uBU5TtN-23" value="" style="endArrow=classic;html=1;rounded=0;" parent="1" edge="1">
          <mxGeometry width="50" height="50" relative="1" as="geometry">
            <mxPoint x="87.5" y="480" as="sourcePoint" />
            <mxPoint x="87.5" y="440" as="targetPoint" />
          </mxGeometry>
        </mxCell>
        <mxCell id="V1wCiQhz8U4Y6uBU5TtN-24" value="" style="endArrow=classic;html=1;rounded=0;" parent="1" edge="1">
          <mxGeometry width="50" height="50" relative="1" as="geometry">
            <mxPoint x="107" y="440" as="sourcePoint" />
            <mxPoint x="107" y="480" as="targetPoint" />
            <Array as="points">
              <mxPoint x="107.5" y="460" />
            </Array>
          </mxGeometry>
        </mxCell>
        <mxCell id="V1wCiQhz8U4Y6uBU5TtN-25" value="Business Logic&amp;nbsp;&lt;span style=&quot;background-color: initial;&quot;&gt;component microservice&lt;/span&gt;" style="html=1;dashed=0;whiteSpace=wrap;shape=mxgraph.dfd.start;fontStyle=1;fillColor=#f0a30a;fontColor=#000000;strokeColor=#BD7000;" parent="1" vertex="1">
          <mxGeometry x="170" y="370" width="120" height="50" as="geometry" />
        </mxCell>
        <mxCell id="V1wCiQhz8U4Y6uBU5TtN-26" value="Database" style="shape=datastore;whiteSpace=wrap;html=1;" parent="1" vertex="1">
          <mxGeometry x="202.5" y="490" width="55" height="50" as="geometry" />
        </mxCell>
        <mxCell id="V1wCiQhz8U4Y6uBU5TtN-27" value="" style="endArrow=classic;html=1;rounded=0;" parent="1" edge="1">
          <mxGeometry width="50" height="50" relative="1" as="geometry">
            <mxPoint x="217.5" y="480" as="sourcePoint" />
            <mxPoint x="217.5" y="440" as="targetPoint" />
          </mxGeometry>
        </mxCell>
        <mxCell id="V1wCiQhz8U4Y6uBU5TtN-28" value="" style="endArrow=classic;html=1;rounded=0;" parent="1" edge="1">
          <mxGeometry width="50" height="50" relative="1" as="geometry">
            <mxPoint x="237" y="440" as="sourcePoint" />
            <mxPoint x="237" y="480" as="targetPoint" />
            <Array as="points">
              <mxPoint x="237.5" y="460" />
            </Array>
          </mxGeometry>
        </mxCell>
        <mxCell id="V1wCiQhz8U4Y6uBU5TtN-29" value="Business Logic&amp;nbsp;&lt;span style=&quot;background-color: initial;&quot;&gt;component microservice&lt;/span&gt;" style="html=1;dashed=0;whiteSpace=wrap;shape=mxgraph.dfd.start;fontStyle=1;fillColor=#f0a30a;fontColor=#000000;strokeColor=#BD7000;" parent="1" vertex="1">
          <mxGeometry x="300" y="370" width="120" height="50" as="geometry" />
        </mxCell>
        <mxCell id="V1wCiQhz8U4Y6uBU5TtN-30" value="Database" style="shape=datastore;whiteSpace=wrap;html=1;" parent="1" vertex="1">
          <mxGeometry x="332.5" y="490" width="55" height="50" as="geometry" />
        </mxCell>
        <mxCell id="V1wCiQhz8U4Y6uBU5TtN-31" value="" style="endArrow=classic;html=1;rounded=0;" parent="1" edge="1">
          <mxGeometry width="50" height="50" relative="1" as="geometry">
            <mxPoint x="347.5" y="480" as="sourcePoint" />
            <mxPoint x="347.5" y="440" as="targetPoint" />
          </mxGeometry>
        </mxCell>
        <mxCell id="V1wCiQhz8U4Y6uBU5TtN-32" value="" style="endArrow=classic;html=1;rounded=0;" parent="1" edge="1">
          <mxGeometry width="50" height="50" relative="1" as="geometry">
            <mxPoint x="367" y="440" as="sourcePoint" />
            <mxPoint x="367" y="480" as="targetPoint" />
            <Array as="points">
              <mxPoint x="367.5" y="460" />
            </Array>
          </mxGeometry>
        </mxCell>
        <mxCell id="V1wCiQhz8U4Y6uBU5TtN-33" value="Business Logic&amp;nbsp;&lt;span style=&quot;background-color: initial;&quot;&gt;component microservice&lt;/span&gt;" style="html=1;dashed=0;whiteSpace=wrap;shape=mxgraph.dfd.start;fontStyle=1;fillColor=#f0a30a;fontColor=#000000;strokeColor=#BD7000;" parent="1" vertex="1">
          <mxGeometry x="430" y="370" width="120" height="50" as="geometry" />
        </mxCell>
        <mxCell id="V1wCiQhz8U4Y6uBU5TtN-34" value="Database" style="shape=datastore;whiteSpace=wrap;html=1;" parent="1" vertex="1">
          <mxGeometry x="462.5" y="490" width="55" height="50" as="geometry" />
        </mxCell>
        <mxCell id="V1wCiQhz8U4Y6uBU5TtN-35" value="" style="endArrow=classic;html=1;rounded=0;" parent="1" edge="1">
          <mxGeometry width="50" height="50" relative="1" as="geometry">
            <mxPoint x="477.5" y="480" as="sourcePoint" />
            <mxPoint x="477.5" y="440" as="targetPoint" />
          </mxGeometry>
        </mxCell>
        <mxCell id="V1wCiQhz8U4Y6uBU5TtN-36" value="" style="endArrow=classic;html=1;rounded=0;" parent="1" edge="1">
          <mxGeometry width="50" height="50" relative="1" as="geometry">
            <mxPoint x="497" y="440" as="sourcePoint" />
            <mxPoint x="497" y="480" as="targetPoint" />
            <Array as="points">
              <mxPoint x="497.5" y="460" />
            </Array>
          </mxGeometry>
        </mxCell>
        <mxCell id="V1wCiQhz8U4Y6uBU5TtN-37" value="Business Logic&amp;nbsp;&lt;span style=&quot;background-color: initial;&quot;&gt;component microservice&lt;/span&gt;" style="html=1;dashed=0;whiteSpace=wrap;shape=mxgraph.dfd.start;fontStyle=1;fillColor=#f0a30a;fontColor=#000000;strokeColor=#BD7000;" parent="1" vertex="1">
          <mxGeometry x="560" y="370" width="120" height="50" as="geometry" />
        </mxCell>
        <mxCell id="V1wCiQhz8U4Y6uBU5TtN-38" value="Database" style="shape=datastore;whiteSpace=wrap;html=1;" parent="1" vertex="1">
          <mxGeometry x="592.5" y="490" width="55" height="50" as="geometry" />
        </mxCell>
        <mxCell id="V1wCiQhz8U4Y6uBU5TtN-39" value="" style="endArrow=classic;html=1;rounded=0;" parent="1" edge="1">
          <mxGeometry width="50" height="50" relative="1" as="geometry">
            <mxPoint x="607.5" y="480" as="sourcePoint" />
            <mxPoint x="607.5" y="440" as="targetPoint" />
          </mxGeometry>
        </mxCell>
        <mxCell id="V1wCiQhz8U4Y6uBU5TtN-40" value="" style="endArrow=classic;html=1;rounded=0;" parent="1" edge="1">
          <mxGeometry width="50" height="50" relative="1" as="geometry">
            <mxPoint x="627" y="440" as="sourcePoint" />
            <mxPoint x="627" y="480" as="targetPoint" />
            <Array as="points">
              <mxPoint x="627.5" y="460" />
            </Array>
          </mxGeometry>
        </mxCell>
        <mxCell id="V1wCiQhz8U4Y6uBU5TtN-43" style="edgeStyle=orthogonalEdgeStyle;rounded=0;orthogonalLoop=1;jettySize=auto;html=1;exitX=0.5;exitY=0.5;exitDx=0;exitDy=20;exitPerimeter=0;entryX=0.5;entryY=0.5;entryDx=0;entryDy=-25;entryPerimeter=0;" parent="1" source="sDq0VXqV6MLcIJx__lWi-2" target="V1wCiQhz8U4Y6uBU5TtN-25" edge="1">
          <mxGeometry relative="1" as="geometry" />
        </mxCell>
        <mxCell id="V1wCiQhz8U4Y6uBU5TtN-45" style="edgeStyle=orthogonalEdgeStyle;rounded=0;orthogonalLoop=1;jettySize=auto;html=1;exitX=0.5;exitY=0.5;exitDx=0;exitDy=20;exitPerimeter=0;entryX=0.5;entryY=0.5;entryDx=0;entryDy=-25;entryPerimeter=0;" parent="1" source="sDq0VXqV6MLcIJx__lWi-2" target="V1wCiQhz8U4Y6uBU5TtN-29" edge="1">
          <mxGeometry relative="1" as="geometry" />
        </mxCell>
        <mxCell id="V1wCiQhz8U4Y6uBU5TtN-46" style="edgeStyle=orthogonalEdgeStyle;rounded=0;orthogonalLoop=1;jettySize=auto;html=1;exitX=0.5;exitY=0.5;exitDx=0;exitDy=20;exitPerimeter=0;entryX=0.5;entryY=0.5;entryDx=0;entryDy=-25;entryPerimeter=0;" parent="1" source="sDq0VXqV6MLcIJx__lWi-2" target="V1wCiQhz8U4Y6uBU5TtN-33" edge="1">
          <mxGeometry relative="1" as="geometry" />
        </mxCell>
        <mxCell id="V1wCiQhz8U4Y6uBU5TtN-48" style="edgeStyle=orthogonalEdgeStyle;rounded=0;orthogonalLoop=1;jettySize=auto;html=1;exitX=0.5;exitY=0.5;exitDx=0;exitDy=20;exitPerimeter=0;entryX=0.5;entryY=0.5;entryDx=0;entryDy=-25;entryPerimeter=0;" parent="1" source="sDq0VXqV6MLcIJx__lWi-2" target="sDq0VXqV6MLcIJx__lWi-3" edge="1">
          <mxGeometry relative="1" as="geometry" />
        </mxCell>
        <mxCell id="V1wCiQhz8U4Y6uBU5TtN-50" value="" style="rounded=0;whiteSpace=wrap;html=1;opacity=0;" parent="1" vertex="1">
          <mxGeometry x="20" y="180" width="680" height="410" as="geometry" />
        </mxCell>
      </root>
    </mxGraphModel>
  </diagram>
  <diagram id="1nw-z3FQVe3abR4Gh1ke" name="cont-app">
    <mxGraphModel dx="1098" dy="988" grid="1" gridSize="10" guides="1" tooltips="1" connect="1" arrows="1" fold="1" page="1" pageScale="1" pageWidth="850" pageHeight="1100" math="0" shadow="0">
      <root>
        <mxCell id="0" />
        <mxCell id="1" parent="0" />
        <mxCell id="os23BWR_1YlYpWI25ezL-1" value="&lt;span style=&quot;font-size: 17px;&quot;&gt;&lt;b&gt;Containerized&amp;nbsp;&lt;/b&gt;&lt;/span&gt;&lt;b style=&quot;background-color: initial; font-size: 17px;&quot;&gt;Applications&lt;/b&gt;" style="text;html=1;align=center;verticalAlign=middle;resizable=0;points=[];autosize=1;strokeColor=none;fillColor=none;labelBorderColor=none;textShadow=0;" vertex="1" parent="1">
          <mxGeometry x="240" y="180" width="240" height="30" as="geometry" />
        </mxCell>
        <mxCell id="os23BWR_1YlYpWI25ezL-2" value="Infrastructure / Hardware" style="html=1;dashed=0;whiteSpace=wrap;shape=mxgraph.dfd.start;fillColor=#60a917;fontColor=#ffffff;strokeColor=#2D7600;fontStyle=1" vertex="1" parent="1">
          <mxGeometry x="205" y="510" width="310" height="50" as="geometry" />
        </mxCell>
        <mxCell id="os23BWR_1YlYpWI25ezL-3" value="Host Operating System" style="html=1;dashed=0;whiteSpace=wrap;shape=mxgraph.dfd.start;fillColor=#0050ef;fontColor=#ffffff;strokeColor=#001DBC;fontStyle=1" vertex="1" parent="1">
          <mxGeometry x="205" y="450" width="310" height="50" as="geometry" />
        </mxCell>
        <mxCell id="os23BWR_1YlYpWI25ezL-4" value="Container Engine" style="html=1;dashed=0;whiteSpace=wrap;shape=mxgraph.dfd.start;fillColor=#1ba1e2;fontColor=#ffffff;strokeColor=#006EAF;fontStyle=1" vertex="1" parent="1">
          <mxGeometry x="205" y="390" width="310" height="50" as="geometry" />
        </mxCell>
        <mxCell id="os23BWR_1YlYpWI25ezL-5" value="Application" style="html=1;dashed=0;whiteSpace=wrap;shape=mxgraph.dfd.start;fillColor=#1ba1e2;fontColor=#ffffff;strokeColor=#006EAF;fontStyle=1;rotation=-90;" vertex="1" parent="1">
          <mxGeometry x="165" y="280" width="150" height="50" as="geometry" />
        </mxCell>
        <mxCell id="os23BWR_1YlYpWI25ezL-6" value="Application" style="html=1;dashed=0;whiteSpace=wrap;shape=mxgraph.dfd.start;fillColor=#1ba1e2;fontColor=#ffffff;strokeColor=#006EAF;fontStyle=1;rotation=-90;" vertex="1" parent="1">
          <mxGeometry x="225" y="280" width="150" height="50" as="geometry" />
        </mxCell>
        <mxCell id="os23BWR_1YlYpWI25ezL-7" value="Application" style="html=1;dashed=0;whiteSpace=wrap;shape=mxgraph.dfd.start;fillColor=#1ba1e2;fontColor=#ffffff;strokeColor=#006EAF;fontStyle=1;rotation=-90;" vertex="1" parent="1">
          <mxGeometry x="345" y="280" width="150" height="50" as="geometry" />
        </mxCell>
        <mxCell id="os23BWR_1YlYpWI25ezL-8" value="Application" style="html=1;dashed=0;whiteSpace=wrap;shape=mxgraph.dfd.start;fillColor=#1ba1e2;fontColor=#ffffff;strokeColor=#006EAF;fontStyle=1;rotation=-90;" vertex="1" parent="1">
          <mxGeometry x="405" y="280" width="150" height="50" as="geometry" />
        </mxCell>
        <mxCell id="os23BWR_1YlYpWI25ezL-9" value="Application" style="html=1;dashed=0;whiteSpace=wrap;shape=mxgraph.dfd.start;fillColor=#1ba1e2;fontColor=#ffffff;strokeColor=#006EAF;fontStyle=1;rotation=-90;" vertex="1" parent="1">
          <mxGeometry x="285" y="280" width="150" height="50" as="geometry" />
        </mxCell>
        <mxCell id="os23BWR_1YlYpWI25ezL-10" value="" style="shape=crossbar;whiteSpace=wrap;html=1;rounded=1;direction=south;" vertex="1" parent="1">
          <mxGeometry x="515" y="230" width="20" height="150" as="geometry" />
        </mxCell>
        <mxCell id="os23BWR_1YlYpWI25ezL-11" value="Containers" style="text;html=1;align=center;verticalAlign=middle;whiteSpace=wrap;rounded=0;rotation=90;fontSize=14;" vertex="1" parent="1">
          <mxGeometry x="515" y="290" width="60" height="30" as="geometry" />
        </mxCell>
        <mxCell id="os23BWR_1YlYpWI25ezL-12" value="Kernel" style="html=1;dashed=0;whiteSpace=wrap;shape=mxgraph.dfd.start;fillColor=#6a00ff;fontColor=#ffffff;strokeColor=#3700CC;fontStyle=1" vertex="1" parent="1">
          <mxGeometry x="215" y="455" width="70" height="40" as="geometry" />
        </mxCell>
        <mxCell id="os23BWR_1YlYpWI25ezL-13" value="" style="rounded=0;whiteSpace=wrap;html=1;opacity=0;" vertex="1" parent="1">
          <mxGeometry x="160" y="160" width="420" height="430" as="geometry" />
        </mxCell>
      </root>
    </mxGraphModel>
  </diagram>
  <diagram id="HHVgL1TEUyjASTPBqiM3" name="docker workflow">
    <mxGraphModel dx="1098" dy="988" grid="1" gridSize="10" guides="1" tooltips="1" connect="1" arrows="1" fold="1" page="1" pageScale="1" pageWidth="850" pageHeight="1100" math="0" shadow="0">
      <root>
        <mxCell id="0" />
        <mxCell id="1" parent="0" />
        <mxCell id="jeAARLG8NdHE8tyDg0NV-1" value="&lt;span style=&quot;font-size: 17px;&quot;&gt;&lt;b&gt;Docker Workflow&lt;/b&gt;&lt;/span&gt;" style="text;html=1;align=center;verticalAlign=middle;resizable=0;points=[];autosize=1;strokeColor=none;fillColor=none;labelBorderColor=none;textShadow=0;" vertex="1" parent="1">
          <mxGeometry x="320" y="290" width="160" height="30" as="geometry" />
        </mxCell>
        <mxCell id="jeAARLG8NdHE8tyDg0NV-2" value="Dockerfile" style="swimlane;fontStyle=1;childLayout=stackLayout;horizontal=1;startSize=26;horizontalStack=0;resizeParent=1;resizeParentMax=0;resizeLast=0;collapsible=1;marginBottom=0;align=center;fontSize=14;" vertex="1" parent="1">
          <mxGeometry x="80" y="360" width="130" height="98" as="geometry">
            <mxRectangle x="120" y="750" width="60" height="30" as="alternateBounds" />
          </mxGeometry>
        </mxCell>
        <mxCell id="jeAARLG8NdHE8tyDg0NV-3" value="FROM ..." style="text;strokeColor=none;fillColor=none;spacingLeft=4;spacingRight=4;overflow=hidden;rotatable=0;points=[[0,0.5],[1,0.5]];portConstraint=eastwest;fontSize=12;whiteSpace=wrap;html=1;" vertex="1" parent="jeAARLG8NdHE8tyDg0NV-2">
          <mxGeometry y="26" width="130" height="24" as="geometry" />
        </mxCell>
        <mxCell id="jeAARLG8NdHE8tyDg0NV-4" value="RUN ..." style="text;strokeColor=none;fillColor=none;spacingLeft=4;spacingRight=4;overflow=hidden;rotatable=0;points=[[0,0.5],[1,0.5]];portConstraint=eastwest;fontSize=12;whiteSpace=wrap;html=1;" vertex="1" parent="jeAARLG8NdHE8tyDg0NV-2">
          <mxGeometry y="50" width="130" height="24" as="geometry" />
        </mxCell>
        <mxCell id="jeAARLG8NdHE8tyDg0NV-5" value="ENTRYPOINT ..." style="text;strokeColor=none;fillColor=none;spacingLeft=4;spacingRight=4;overflow=hidden;rotatable=0;points=[[0,0.5],[1,0.5]];portConstraint=eastwest;fontSize=12;whiteSpace=wrap;html=1;" vertex="1" parent="jeAARLG8NdHE8tyDg0NV-2">
          <mxGeometry y="74" width="130" height="24" as="geometry" />
        </mxCell>
        <mxCell id="jeAARLG8NdHE8tyDg0NV-6" style="edgeStyle=orthogonalEdgeStyle;rounded=0;orthogonalLoop=1;jettySize=auto;html=1;exitX=1;exitY=0.5;exitDx=0;exitDy=0;" edge="1" parent="1" source="jeAARLG8NdHE8tyDg0NV-10">
          <mxGeometry relative="1" as="geometry">
            <mxPoint x="570" y="412" as="targetPoint" />
          </mxGeometry>
        </mxCell>
        <mxCell id="jeAARLG8NdHE8tyDg0NV-7" style="edgeStyle=orthogonalEdgeStyle;rounded=0;orthogonalLoop=1;jettySize=auto;html=1;exitX=0.5;exitY=1;exitDx=0;exitDy=0;entryX=0.5;entryY=0;entryDx=0;entryDy=0;" edge="1" parent="1" source="jeAARLG8NdHE8tyDg0NV-10" target="jeAARLG8NdHE8tyDg0NV-18">
          <mxGeometry relative="1" as="geometry">
            <Array as="points">
              <mxPoint x="400" y="550" />
              <mxPoint x="185" y="550" />
            </Array>
          </mxGeometry>
        </mxCell>
        <mxCell id="jeAARLG8NdHE8tyDg0NV-8" style="edgeStyle=orthogonalEdgeStyle;rounded=0;orthogonalLoop=1;jettySize=auto;html=1;exitX=0.5;exitY=1;exitDx=0;exitDy=0;entryX=0.5;entryY=0;entryDx=0;entryDy=0;" edge="1" parent="1" source="jeAARLG8NdHE8tyDg0NV-10" target="jeAARLG8NdHE8tyDg0NV-20">
          <mxGeometry relative="1" as="geometry" />
        </mxCell>
        <mxCell id="jeAARLG8NdHE8tyDg0NV-9" style="edgeStyle=orthogonalEdgeStyle;rounded=0;orthogonalLoop=1;jettySize=auto;html=1;exitX=0.5;exitY=1;exitDx=0;exitDy=0;" edge="1" parent="1" source="jeAARLG8NdHE8tyDg0NV-10" target="jeAARLG8NdHE8tyDg0NV-19">
          <mxGeometry relative="1" as="geometry">
            <Array as="points">
              <mxPoint x="400" y="550" />
              <mxPoint x="615" y="550" />
            </Array>
          </mxGeometry>
        </mxCell>
        <mxCell id="jeAARLG8NdHE8tyDg0NV-10" value="&lt;span style=&quot;font-weight: 700;&quot;&gt;Docker Image&lt;/span&gt;" style="rounded=1;whiteSpace=wrap;html=1;fillColor=#0050ef;fontColor=#ffffff;strokeColor=#001DBC;" vertex="1" parent="1">
          <mxGeometry x="340" y="378" width="120" height="68" as="geometry" />
        </mxCell>
        <mxCell id="jeAARLG8NdHE8tyDg0NV-11" value="Build" style="text;html=1;align=center;verticalAlign=middle;resizable=0;points=[];autosize=1;strokeColor=none;fillColor=none;fontSize=13;" vertex="1" parent="1">
          <mxGeometry x="250" y="380" width="50" height="30" as="geometry" />
        </mxCell>
        <mxCell id="jeAARLG8NdHE8tyDg0NV-12" value="" style="endArrow=classic;html=1;rounded=0;entryX=0;entryY=0.5;entryDx=0;entryDy=0;" edge="1" parent="1" target="jeAARLG8NdHE8tyDg0NV-10">
          <mxGeometry width="50" height="50" relative="1" as="geometry">
            <mxPoint x="210" y="412" as="sourcePoint" />
            <mxPoint x="450" y="480" as="targetPoint" />
          </mxGeometry>
        </mxCell>
        <mxCell id="jeAARLG8NdHE8tyDg0NV-13" value="Push" style="text;html=1;align=center;verticalAlign=middle;resizable=0;points=[];autosize=1;strokeColor=none;fillColor=none;fontSize=13;" vertex="1" parent="1">
          <mxGeometry x="490" y="380" width="50" height="30" as="geometry" />
        </mxCell>
        <mxCell id="jeAARLG8NdHE8tyDg0NV-14" value="&lt;span style=&quot;font-weight: 700;&quot;&gt;Docker Hub / Image Registry&lt;/span&gt;" style="rounded=1;whiteSpace=wrap;html=1;fillColor=#60a917;fontColor=#ffffff;strokeColor=#2D7600;" vertex="1" parent="1">
          <mxGeometry x="570" y="378" width="120" height="68" as="geometry" />
        </mxCell>
        <mxCell id="jeAARLG8NdHE8tyDg0NV-15" value="&lt;span style=&quot;font-weight: 700;&quot;&gt;Docker Image&lt;/span&gt;" style="rounded=1;whiteSpace=wrap;html=1;fillColor=#0050ef;fontColor=#ffffff;strokeColor=#001DBC;" vertex="1" parent="1">
          <mxGeometry x="125" y="600" width="120" height="68" as="geometry" />
        </mxCell>
        <mxCell id="jeAARLG8NdHE8tyDg0NV-16" value="&lt;span style=&quot;font-weight: 700;&quot;&gt;Docker Image&lt;/span&gt;" style="rounded=1;whiteSpace=wrap;html=1;fillColor=#0050ef;fontColor=#ffffff;strokeColor=#001DBC;" vertex="1" parent="1">
          <mxGeometry x="340" y="600" width="120" height="68" as="geometry" />
        </mxCell>
        <mxCell id="jeAARLG8NdHE8tyDg0NV-17" value="&lt;span style=&quot;font-weight: 700;&quot;&gt;Docker Image&lt;/span&gt;" style="rounded=1;whiteSpace=wrap;html=1;fillColor=#0050ef;fontColor=#ffffff;strokeColor=#001DBC;" vertex="1" parent="1">
          <mxGeometry x="555" y="600" width="120" height="68" as="geometry" />
        </mxCell>
        <mxCell id="jeAARLG8NdHE8tyDg0NV-18" value="&lt;font style=&quot;font-size: 13px;&quot;&gt;&lt;b&gt;Test Enviroment&lt;/b&gt;&lt;/font&gt;" style="rounded=0;whiteSpace=wrap;html=1;dashed=1;gradientColor=default;fillColor=none;verticalAlign=bottom;" vertex="1" parent="1">
          <mxGeometry x="110" y="590" width="150" height="120" as="geometry" />
        </mxCell>
        <mxCell id="jeAARLG8NdHE8tyDg0NV-19" value="&lt;font style=&quot;font-size: 13px;&quot;&gt;&lt;b&gt;Production Enviroment&lt;/b&gt;&lt;/font&gt;" style="rounded=0;whiteSpace=wrap;html=1;dashed=1;gradientColor=default;fillColor=none;verticalAlign=bottom;" vertex="1" parent="1">
          <mxGeometry x="540" y="590" width="150" height="120" as="geometry" />
        </mxCell>
        <mxCell id="jeAARLG8NdHE8tyDg0NV-20" value="&lt;font style=&quot;font-size: 13px;&quot;&gt;&lt;b&gt;Staging Enviroment&lt;/b&gt;&lt;/font&gt;" style="rounded=0;whiteSpace=wrap;html=1;dashed=1;gradientColor=default;fillColor=none;verticalAlign=bottom;" vertex="1" parent="1">
          <mxGeometry x="325" y="590" width="150" height="120" as="geometry" />
        </mxCell>
        <mxCell id="jeAARLG8NdHE8tyDg0NV-21" value="&lt;font style=&quot;font-size: 13px;&quot;&gt;Deploy&lt;/font&gt;" style="text;html=1;align=center;verticalAlign=middle;resizable=0;points=[];autosize=1;strokeColor=none;fillColor=none;" vertex="1" parent="1">
          <mxGeometry x="400" y="478" width="60" height="30" as="geometry" />
        </mxCell>
        <mxCell id="jeAARLG8NdHE8tyDg0NV-22" value="" style="rounded=0;whiteSpace=wrap;html=1;opacity=0;" vertex="1" parent="1">
          <mxGeometry x="70" y="280" width="660" height="460" as="geometry" />
        </mxCell>
      </root>
    </mxGraphModel>
  </diagram>
  <diagram id="rUD9CtFKHbE3mYyPibEQ" name="iot">
    <mxGraphModel dx="1098" dy="988" grid="1" gridSize="10" guides="1" tooltips="1" connect="1" arrows="1" fold="1" page="1" pageScale="1" pageWidth="850" pageHeight="1100" math="0" shadow="0">
      <root>
        <mxCell id="0" />
        <mxCell id="1" parent="0" />
        <mxCell id="1mEo7ktqgb61iruMt9ab-1" value="&lt;span style=&quot;font-size: 17px;&quot;&gt;&lt;b&gt;IoT ecosystem&lt;/b&gt;&lt;/span&gt;" style="text;html=1;align=center;verticalAlign=middle;resizable=0;points=[];autosize=1;strokeColor=none;fillColor=none;" vertex="1" parent="1">
          <mxGeometry x="415" y="240" width="140" height="30" as="geometry" />
        </mxCell>
        <mxCell id="1mEo7ktqgb61iruMt9ab-2" value="IoT Device" style="ellipse;whiteSpace=wrap;html=1;aspect=fixed;fillColor=#1ba1e2;fontColor=#ffffff;strokeColor=#006EAF;" vertex="1" parent="1">
          <mxGeometry x="200" y="280" width="80" height="80" as="geometry" />
        </mxCell>
        <mxCell id="1mEo7ktqgb61iruMt9ab-3" value="IoT Device" style="ellipse;whiteSpace=wrap;html=1;aspect=fixed;fillColor=#1ba1e2;fontColor=#ffffff;strokeColor=#006EAF;" vertex="1" parent="1">
          <mxGeometry x="140" y="350" width="80" height="80" as="geometry" />
        </mxCell>
        <mxCell id="1mEo7ktqgb61iruMt9ab-4" value="Sensor" style="ellipse;whiteSpace=wrap;html=1;aspect=fixed;fillColor=#60a917;fontColor=#ffffff;strokeColor=#2D7600;" vertex="1" parent="1">
          <mxGeometry x="120" y="440" width="80" height="80" as="geometry" />
        </mxCell>
        <mxCell id="1mEo7ktqgb61iruMt9ab-5" value="Sensor" style="ellipse;whiteSpace=wrap;html=1;aspect=fixed;fillColor=#60a917;fontColor=#ffffff;strokeColor=#2D7600;" vertex="1" parent="1">
          <mxGeometry x="140" y="530" width="80" height="80" as="geometry" />
        </mxCell>
        <mxCell id="1mEo7ktqgb61iruMt9ab-6" value="Sensor" style="ellipse;whiteSpace=wrap;html=1;aspect=fixed;fillColor=#60a917;fontColor=#ffffff;strokeColor=#2D7600;" vertex="1" parent="1">
          <mxGeometry x="200" y="600" width="80" height="80" as="geometry" />
        </mxCell>
        <mxCell id="1mEo7ktqgb61iruMt9ab-7" value="" style="sketch=0;outlineConnect=0;fontColor=#232F3E;gradientColor=none;fillColor=#E7157B;strokeColor=none;dashed=0;verticalLabelPosition=bottom;verticalAlign=top;align=center;html=1;fontSize=12;fontStyle=0;aspect=fixed;pointerEvents=1;shape=mxgraph.aws4.endpoint;" vertex="1" parent="1">
          <mxGeometry x="316" y="440" width="78" height="78" as="geometry" />
        </mxCell>
        <mxCell id="1mEo7ktqgb61iruMt9ab-8" value="IoT Gateway" style="text;html=1;align=center;verticalAlign=middle;resizable=0;points=[];autosize=1;strokeColor=none;fillColor=none;" vertex="1" parent="1">
          <mxGeometry x="310" y="518" width="90" height="30" as="geometry" />
        </mxCell>
        <mxCell id="1mEo7ktqgb61iruMt9ab-9" value="" style="endArrow=none;dashed=1;html=1;dashPattern=1 3;strokeWidth=2;rounded=0;exitX=1;exitY=1;exitDx=0;exitDy=0;entryX=0;entryY=0;entryDx=0;entryDy=0;" edge="1" parent="1" source="1mEo7ktqgb61iruMt9ab-3" target="1mEo7ktqgb61iruMt9ab-13">
          <mxGeometry width="50" height="50" relative="1" as="geometry">
            <mxPoint x="360" y="500" as="sourcePoint" />
            <mxPoint x="270" y="450" as="targetPoint" />
          </mxGeometry>
        </mxCell>
        <mxCell id="1mEo7ktqgb61iruMt9ab-10" value="" style="endArrow=none;dashed=1;html=1;dashPattern=1 3;strokeWidth=2;rounded=0;exitX=1;exitY=1;exitDx=0;exitDy=0;entryX=0.5;entryY=0;entryDx=0;entryDy=0;" edge="1" parent="1" source="1mEo7ktqgb61iruMt9ab-2" target="1mEo7ktqgb61iruMt9ab-13">
          <mxGeometry width="50" height="50" relative="1" as="geometry">
            <mxPoint x="360" y="500" as="sourcePoint" />
            <mxPoint x="290" y="430" as="targetPoint" />
          </mxGeometry>
        </mxCell>
        <mxCell id="1mEo7ktqgb61iruMt9ab-11" value="" style="endArrow=none;dashed=1;html=1;dashPattern=1 3;strokeWidth=2;rounded=0;exitX=1;exitY=0.5;exitDx=0;exitDy=0;entryX=0;entryY=0.5;entryDx=0;entryDy=0;" edge="1" parent="1" source="1mEo7ktqgb61iruMt9ab-4" target="1mEo7ktqgb61iruMt9ab-13">
          <mxGeometry width="50" height="50" relative="1" as="geometry">
            <mxPoint x="218" y="428" as="sourcePoint" />
            <mxPoint x="260" y="490" as="targetPoint" />
          </mxGeometry>
        </mxCell>
        <mxCell id="1mEo7ktqgb61iruMt9ab-12" value="" style="ellipse;whiteSpace=wrap;html=1;aspect=fixed;" vertex="1" parent="1">
          <mxGeometry as="geometry" />
        </mxCell>
        <mxCell id="1mEo7ktqgb61iruMt9ab-13" value="" style="ellipse;whiteSpace=wrap;html=1;aspect=fixed;opacity=0;" vertex="1" parent="1">
          <mxGeometry x="300" y="475" width="10" height="10" as="geometry" />
        </mxCell>
        <mxCell id="1mEo7ktqgb61iruMt9ab-14" value="" style="endArrow=none;dashed=1;html=1;dashPattern=1 3;strokeWidth=2;rounded=0;exitX=0.95;exitY=0.238;exitDx=0;exitDy=0;exitPerimeter=0;entryX=0.5;entryY=1;entryDx=0;entryDy=0;" edge="1" parent="1" source="1mEo7ktqgb61iruMt9ab-5" target="1mEo7ktqgb61iruMt9ab-13">
          <mxGeometry width="50" height="50" relative="1" as="geometry">
            <mxPoint x="210" y="490" as="sourcePoint" />
            <mxPoint x="300" y="490" as="targetPoint" />
          </mxGeometry>
        </mxCell>
        <mxCell id="1mEo7ktqgb61iruMt9ab-15" value="" style="endArrow=none;dashed=1;html=1;dashPattern=1 3;strokeWidth=2;rounded=0;exitX=1;exitY=0;exitDx=0;exitDy=0;entryX=0.5;entryY=1;entryDx=0;entryDy=0;" edge="1" parent="1" source="1mEo7ktqgb61iruMt9ab-6" target="1mEo7ktqgb61iruMt9ab-13">
          <mxGeometry width="50" height="50" relative="1" as="geometry">
            <mxPoint x="226" y="559" as="sourcePoint" />
            <mxPoint x="315" y="495" as="targetPoint" />
          </mxGeometry>
        </mxCell>
        <mxCell id="1mEo7ktqgb61iruMt9ab-16" value="" style="endArrow=classic;startArrow=classic;html=1;rounded=0;" edge="1" parent="1" source="1mEo7ktqgb61iruMt9ab-7">
          <mxGeometry width="50" height="50" relative="1" as="geometry">
            <mxPoint x="360" y="500" as="sourcePoint" />
            <mxPoint x="470" y="480" as="targetPoint" />
          </mxGeometry>
        </mxCell>
        <mxCell id="1mEo7ktqgb61iruMt9ab-17" value="" style="html=1;verticalLabelPosition=bottom;align=center;labelBackgroundColor=#ffffff;verticalAlign=top;strokeWidth=2;strokeColor=#0080F0;shadow=0;dashed=0;shape=mxgraph.ios7.icons.cloud;" vertex="1" parent="1">
          <mxGeometry x="470" y="430" width="150" height="75" as="geometry" />
        </mxCell>
        <mxCell id="1mEo7ktqgb61iruMt9ab-18" value="IoT Platform" style="text;html=1;align=center;verticalAlign=middle;resizable=0;points=[];autosize=1;strokeColor=none;fillColor=none;" vertex="1" parent="1">
          <mxGeometry x="500" y="464" width="90" height="30" as="geometry" />
        </mxCell>
        <mxCell id="1mEo7ktqgb61iruMt9ab-19" value="Data Storage" style="rounded=1;whiteSpace=wrap;html=1;fillColor=#647687;fontColor=#ffffff;strokeColor=#314354;" vertex="1" parent="1">
          <mxGeometry x="710" y="330" width="120" height="60" as="geometry" />
        </mxCell>
        <mxCell id="1mEo7ktqgb61iruMt9ab-20" value="Data Analytics" style="rounded=1;whiteSpace=wrap;html=1;fillColor=#647687;fontColor=#ffffff;strokeColor=#314354;" vertex="1" parent="1">
          <mxGeometry x="730" y="404" width="120" height="60" as="geometry" />
        </mxCell>
        <mxCell id="1mEo7ktqgb61iruMt9ab-21" value="Device Control" style="rounded=1;whiteSpace=wrap;html=1;fillColor=#647687;fontColor=#ffffff;strokeColor=#314354;" vertex="1" parent="1">
          <mxGeometry x="730" y="494" width="120" height="60" as="geometry" />
        </mxCell>
        <mxCell id="1mEo7ktqgb61iruMt9ab-22" value="Augmented Reality" style="rounded=1;whiteSpace=wrap;html=1;fillColor=#647687;fontColor=#ffffff;strokeColor=#314354;" vertex="1" parent="1">
          <mxGeometry x="710" y="570" width="120" height="60" as="geometry" />
        </mxCell>
        <mxCell id="1mEo7ktqgb61iruMt9ab-23" value="" style="endArrow=classic;startArrow=classic;html=1;rounded=0;entryX=0;entryY=0.5;entryDx=0;entryDy=0;exitX=1;exitY=0.587;exitDx=0;exitDy=0;exitPerimeter=0;" edge="1" parent="1" source="1mEo7ktqgb61iruMt9ab-17" target="1mEo7ktqgb61iruMt9ab-19">
          <mxGeometry width="50" height="50" relative="1" as="geometry">
            <mxPoint x="360" y="500" as="sourcePoint" />
            <mxPoint x="410" y="450" as="targetPoint" />
          </mxGeometry>
        </mxCell>
        <mxCell id="1mEo7ktqgb61iruMt9ab-24" value="" style="endArrow=classic;startArrow=classic;html=1;rounded=0;entryX=0;entryY=0.5;entryDx=0;entryDy=0;exitX=1;exitY=0.68;exitDx=0;exitDy=0;exitPerimeter=0;" edge="1" parent="1" source="1mEo7ktqgb61iruMt9ab-17" target="1mEo7ktqgb61iruMt9ab-20">
          <mxGeometry width="50" height="50" relative="1" as="geometry">
            <mxPoint x="630" y="490" as="sourcePoint" />
            <mxPoint x="720" y="370" as="targetPoint" />
          </mxGeometry>
        </mxCell>
        <mxCell id="1mEo7ktqgb61iruMt9ab-25" value="" style="endArrow=classic;startArrow=classic;html=1;rounded=0;entryX=0;entryY=0.5;entryDx=0;entryDy=0;exitX=0.993;exitY=0.733;exitDx=0;exitDy=0;exitPerimeter=0;" edge="1" parent="1" source="1mEo7ktqgb61iruMt9ab-17" target="1mEo7ktqgb61iruMt9ab-21">
          <mxGeometry width="50" height="50" relative="1" as="geometry">
            <mxPoint x="640" y="500" as="sourcePoint" />
            <mxPoint x="730" y="380" as="targetPoint" />
          </mxGeometry>
        </mxCell>
        <mxCell id="1mEo7ktqgb61iruMt9ab-26" value="" style="endArrow=classic;startArrow=classic;html=1;rounded=0;entryX=0;entryY=0.5;entryDx=0;entryDy=0;exitX=1;exitY=0.8;exitDx=0;exitDy=0;exitPerimeter=0;" edge="1" parent="1" source="1mEo7ktqgb61iruMt9ab-17" target="1mEo7ktqgb61iruMt9ab-22">
          <mxGeometry width="50" height="50" relative="1" as="geometry">
            <mxPoint x="650" y="510" as="sourcePoint" />
            <mxPoint x="740" y="390" as="targetPoint" />
          </mxGeometry>
        </mxCell>
        <mxCell id="1mEo7ktqgb61iruMt9ab-27" value="" style="rounded=0;whiteSpace=wrap;html=1;opacity=0;" vertex="1" parent="1">
          <mxGeometry x="90" y="220" width="790" height="480" as="geometry" />
        </mxCell>
      </root>
    </mxGraphModel>
  </diagram>
  <diagram id="85tlmzo1_qqFjsTwgy16" name="prom-graf">
    <mxGraphModel dx="1058" dy="1494" grid="1" gridSize="10" guides="1" tooltips="1" connect="1" arrows="1" fold="1" page="1" pageScale="1" pageWidth="850" pageHeight="1100" math="0" shadow="0">
      <root>
        <mxCell id="0" />
        <mxCell id="1" parent="0" />
        <mxCell id="ieElur-065_28JwLfEeW-60" value="&lt;span style=&quot;font-size: 17px;&quot;&gt;&lt;b&gt;Prometheus - Grafana Monitoring stack&lt;/b&gt;&lt;/span&gt;" style="text;html=1;align=center;verticalAlign=middle;resizable=0;points=[];autosize=1;strokeColor=none;fillColor=none;flipH=1;flipV=1;" vertex="1" parent="1">
          <mxGeometry x="420" y="180" width="340" height="30" as="geometry" />
        </mxCell>
        <mxCell id="ieElur-065_28JwLfEeW-2" value="" style="pointerEvents=1;shadow=0;dashed=0;html=1;strokeColor=none;fillColor=#4495D1;labelPosition=center;verticalLabelPosition=bottom;verticalAlign=top;align=center;outlineConnect=0;shape=mxgraph.veeam.cpu;" vertex="1" parent="1">
          <mxGeometry x="210" y="322.6" width="44.8" height="44.8" as="geometry" />
        </mxCell>
        <mxCell id="ieElur-065_28JwLfEeW-7" value="&lt;font style=&quot;font-size: 13px;&quot;&gt;Node&lt;/font&gt;&lt;div style=&quot;font-size: 13px;&quot;&gt;&lt;font style=&quot;font-size: 13px;&quot;&gt;Exporter&lt;/font&gt;&lt;/div&gt;" style="text;html=1;align=center;verticalAlign=middle;resizable=0;points=[];autosize=1;strokeColor=none;fillColor=none;" vertex="1" parent="1">
          <mxGeometry x="270" y="325" width="70" height="40" as="geometry" />
        </mxCell>
        <mxCell id="ieElur-065_28JwLfEeW-8" value="" style="pointerEvents=1;shadow=0;dashed=0;html=1;strokeColor=none;fillColor=#4495D1;labelPosition=center;verticalLabelPosition=bottom;verticalAlign=top;align=center;outlineConnect=0;shape=mxgraph.veeam.cpu;" vertex="1" parent="1">
          <mxGeometry x="210" y="392.6" width="44.8" height="44.8" as="geometry" />
        </mxCell>
        <mxCell id="ieElur-065_28JwLfEeW-10" value="&lt;font style=&quot;font-size: 13px;&quot;&gt;Node&lt;/font&gt;&lt;div style=&quot;font-size: 13px;&quot;&gt;&lt;font style=&quot;font-size: 13px;&quot;&gt;Exporter&lt;/font&gt;&lt;/div&gt;" style="text;html=1;align=center;verticalAlign=middle;resizable=0;points=[];autosize=1;strokeColor=none;fillColor=none;" vertex="1" parent="1">
          <mxGeometry x="270" y="395" width="70" height="40" as="geometry" />
        </mxCell>
        <mxCell id="ieElur-065_28JwLfEeW-13" value="" style="verticalLabelPosition=bottom;html=1;verticalAlign=top;align=center;strokeColor=none;fillColor=#00BEF2;shape=mxgraph.azure.mysql_database;" vertex="1" parent="1">
          <mxGeometry x="216.05" y="460" width="37.5" height="50" as="geometry" />
        </mxCell>
        <mxCell id="ieElur-065_28JwLfEeW-14" value="&lt;font style=&quot;font-size: 13px;&quot;&gt;MySQL&lt;/font&gt;&lt;div style=&quot;font-size: 13px;&quot;&gt;&lt;font style=&quot;font-size: 13px;&quot;&gt;Exporter&lt;/font&gt;&lt;/div&gt;" style="text;html=1;align=center;verticalAlign=middle;resizable=0;points=[];autosize=1;strokeColor=none;fillColor=none;" vertex="1" parent="1">
          <mxGeometry x="272.4" y="465" width="70" height="40" as="geometry" />
        </mxCell>
        <mxCell id="ieElur-065_28JwLfEeW-15" value="" style="rounded=1;whiteSpace=wrap;html=1;glass=0;shadow=0;backgroundOutline=0;fillOpacity=0;" vertex="1" parent="1">
          <mxGeometry x="202.4" y="520" width="140" height="70" as="geometry" />
        </mxCell>
        <mxCell id="ieElur-065_28JwLfEeW-17" value="&lt;font style=&quot;font-size: 13px;&quot;&gt;GitHub&lt;/font&gt;&lt;div style=&quot;font-size: 13px;&quot;&gt;&lt;font style=&quot;font-size: 13px;&quot;&gt;Exporter&lt;/font&gt;&lt;/div&gt;" style="text;html=1;align=center;verticalAlign=middle;resizable=0;points=[];autosize=1;strokeColor=none;fillColor=none;" vertex="1" parent="1">
          <mxGeometry x="270" y="535" width="70" height="40" as="geometry" />
        </mxCell>
        <mxCell id="ieElur-065_28JwLfEeW-18" value="" style="verticalLabelPosition=bottom;html=1;verticalAlign=top;align=center;strokeColor=none;fillColor=#00BEF2;shape=mxgraph.azure.github_code;pointerEvents=1;" vertex="1" parent="1">
          <mxGeometry x="207.4" y="530" width="50" height="50" as="geometry" />
        </mxCell>
        <mxCell id="ieElur-065_28JwLfEeW-31" style="edgeStyle=orthogonalEdgeStyle;rounded=0;orthogonalLoop=1;jettySize=auto;html=1;exitX=0.5;exitY=0;exitDx=0;exitDy=0;" edge="1" parent="1" source="ieElur-065_28JwLfEeW-19" target="ieElur-065_28JwLfEeW-32">
          <mxGeometry relative="1" as="geometry">
            <mxPoint x="610" y="340" as="targetPoint" />
          </mxGeometry>
        </mxCell>
        <mxCell id="ieElur-065_28JwLfEeW-47" style="edgeStyle=orthogonalEdgeStyle;rounded=0;orthogonalLoop=1;jettySize=auto;html=1;exitX=0;exitY=0.5;exitDx=0;exitDy=0;entryX=1;entryY=0.5;entryDx=0;entryDy=0;" edge="1" parent="1" source="ieElur-065_28JwLfEeW-19" target="ieElur-065_28JwLfEeW-46">
          <mxGeometry relative="1" as="geometry">
            <Array as="points">
              <mxPoint x="400" y="451" />
              <mxPoint x="400" y="345" />
            </Array>
          </mxGeometry>
        </mxCell>
        <mxCell id="ieElur-065_28JwLfEeW-48" style="edgeStyle=orthogonalEdgeStyle;rounded=0;orthogonalLoop=1;jettySize=auto;html=1;exitX=0;exitY=0.5;exitDx=0;exitDy=0;entryX=1;entryY=0.5;entryDx=0;entryDy=0;" edge="1" parent="1" source="ieElur-065_28JwLfEeW-19" target="ieElur-065_28JwLfEeW-45">
          <mxGeometry relative="1" as="geometry">
            <Array as="points">
              <mxPoint x="400" y="451" />
              <mxPoint x="400" y="415" />
            </Array>
          </mxGeometry>
        </mxCell>
        <mxCell id="ieElur-065_28JwLfEeW-49" style="edgeStyle=orthogonalEdgeStyle;rounded=0;orthogonalLoop=1;jettySize=auto;html=1;exitX=0;exitY=0.5;exitDx=0;exitDy=0;entryX=1;entryY=0.5;entryDx=0;entryDy=0;" edge="1" parent="1" source="ieElur-065_28JwLfEeW-19" target="ieElur-065_28JwLfEeW-44">
          <mxGeometry relative="1" as="geometry">
            <Array as="points">
              <mxPoint x="400" y="451" />
              <mxPoint x="400" y="485" />
            </Array>
          </mxGeometry>
        </mxCell>
        <mxCell id="ieElur-065_28JwLfEeW-50" style="edgeStyle=orthogonalEdgeStyle;rounded=0;orthogonalLoop=1;jettySize=auto;html=1;exitX=0;exitY=0.5;exitDx=0;exitDy=0;entryX=1;entryY=0.5;entryDx=0;entryDy=0;" edge="1" parent="1" source="ieElur-065_28JwLfEeW-19" target="ieElur-065_28JwLfEeW-15">
          <mxGeometry relative="1" as="geometry">
            <Array as="points">
              <mxPoint x="400" y="451" />
              <mxPoint x="400" y="555" />
            </Array>
          </mxGeometry>
        </mxCell>
        <mxCell id="ieElur-065_28JwLfEeW-51" style="edgeStyle=orthogonalEdgeStyle;rounded=0;orthogonalLoop=1;jettySize=auto;html=1;exitX=0.5;exitY=1;exitDx=0;exitDy=0;entryX=0.5;entryY=0;entryDx=0;entryDy=0;" edge="1" parent="1" source="ieElur-065_28JwLfEeW-19" target="ieElur-065_28JwLfEeW-30">
          <mxGeometry relative="1" as="geometry" />
        </mxCell>
        <mxCell id="ieElur-065_28JwLfEeW-19" value="&lt;b style=&quot;font-size: 15px;&quot;&gt;Prometheus&lt;/b&gt;" style="whiteSpace=wrap;html=1;rounded=1;fillColor=#f0a30a;fontColor=#000000;strokeColor=#BD7000;" vertex="1" parent="1">
          <mxGeometry x="480" y="410" width="160" height="82.4" as="geometry" />
        </mxCell>
        <mxCell id="ieElur-065_28JwLfEeW-29" value="Scrape" style="text;html=1;align=center;verticalAlign=middle;resizable=0;points=[];autosize=1;strokeColor=none;fillColor=none;" vertex="1" parent="1">
          <mxGeometry x="410" y="420" width="60" height="30" as="geometry" />
        </mxCell>
        <mxCell id="ieElur-065_28JwLfEeW-54" style="edgeStyle=orthogonalEdgeStyle;rounded=0;orthogonalLoop=1;jettySize=auto;html=1;exitX=1;exitY=0.5;exitDx=0;exitDy=0;entryX=0;entryY=0.5;entryDx=0;entryDy=0;" edge="1" parent="1" source="ieElur-065_28JwLfEeW-30" target="ieElur-065_28JwLfEeW-53">
          <mxGeometry relative="1" as="geometry" />
        </mxCell>
        <mxCell id="ieElur-065_28JwLfEeW-30" value="Time-series&lt;div&gt;Database&lt;/div&gt;" style="shape=datastore;whiteSpace=wrap;html=1;" vertex="1" parent="1">
          <mxGeometry x="525" y="570" width="70" height="70" as="geometry" />
        </mxCell>
        <mxCell id="ieElur-065_28JwLfEeW-33" style="edgeStyle=orthogonalEdgeStyle;rounded=0;orthogonalLoop=1;jettySize=auto;html=1;exitX=1;exitY=0.5;exitDx=0;exitDy=0;" edge="1" parent="1" source="ieElur-065_28JwLfEeW-32">
          <mxGeometry relative="1" as="geometry">
            <mxPoint x="665" y="295" as="targetPoint" />
          </mxGeometry>
        </mxCell>
        <mxCell id="ieElur-065_28JwLfEeW-32" value="Evaluate&lt;div&gt;Alerting&lt;/div&gt;&lt;div&gt;Rules&lt;/div&gt;" style="rhombus;whiteSpace=wrap;html=1;" vertex="1" parent="1">
          <mxGeometry x="515" y="251.2" width="90" height="90" as="geometry" />
        </mxCell>
        <mxCell id="ieElur-065_28JwLfEeW-36" style="edgeStyle=orthogonalEdgeStyle;rounded=0;orthogonalLoop=1;jettySize=auto;html=1;exitX=1;exitY=0.5;exitDx=0;exitDy=0;" edge="1" parent="1" source="ieElur-065_28JwLfEeW-34">
          <mxGeometry relative="1" as="geometry">
            <mxPoint x="855" y="296" as="targetPoint" />
          </mxGeometry>
        </mxCell>
        <mxCell id="ieElur-065_28JwLfEeW-34" value="&lt;b style=&quot;font-size: 15px;&quot;&gt;AlertManager&lt;/b&gt;" style="whiteSpace=wrap;html=1;rounded=1;fillColor=#e3c800;fontColor=#000000;strokeColor=#B09500;" vertex="1" parent="1">
          <mxGeometry x="665" y="260" width="140" height="72.4" as="geometry" />
        </mxCell>
        <mxCell id="ieElur-065_28JwLfEeW-39" value="email" style="rounded=1;whiteSpace=wrap;html=1;glass=0;shadow=0;backgroundOutline=0;fillOpacity=0;" vertex="1" parent="1">
          <mxGeometry x="855" y="221.2" width="97.6" height="50" as="geometry" />
        </mxCell>
        <mxCell id="ieElur-065_28JwLfEeW-41" value="Slack" style="rounded=1;whiteSpace=wrap;html=1;glass=0;shadow=0;backgroundOutline=0;fillOpacity=0;" vertex="1" parent="1">
          <mxGeometry x="855" y="271.20000000000005" width="97.6" height="50" as="geometry" />
        </mxCell>
        <mxCell id="ieElur-065_28JwLfEeW-42" value="webhooks" style="rounded=1;whiteSpace=wrap;html=1;glass=0;shadow=0;backgroundOutline=0;fillOpacity=0;" vertex="1" parent="1">
          <mxGeometry x="855" y="322.4" width="97.6" height="50" as="geometry" />
        </mxCell>
        <mxCell id="ieElur-065_28JwLfEeW-44" value="" style="rounded=1;whiteSpace=wrap;html=1;glass=0;shadow=0;backgroundOutline=0;fillOpacity=0;" vertex="1" parent="1">
          <mxGeometry x="202.4" y="450" width="140" height="70" as="geometry" />
        </mxCell>
        <mxCell id="ieElur-065_28JwLfEeW-45" value="" style="rounded=1;whiteSpace=wrap;html=1;glass=0;shadow=0;backgroundOutline=0;fillOpacity=0;" vertex="1" parent="1">
          <mxGeometry x="202.4" y="379.99999999999994" width="140" height="70" as="geometry" />
        </mxCell>
        <mxCell id="ieElur-065_28JwLfEeW-46" value="" style="rounded=1;whiteSpace=wrap;html=1;glass=0;shadow=0;backgroundOutline=0;fillOpacity=0;" vertex="1" parent="1">
          <mxGeometry x="202.4" y="310" width="140" height="70" as="geometry" />
        </mxCell>
        <mxCell id="ieElur-065_28JwLfEeW-55" style="edgeStyle=orthogonalEdgeStyle;rounded=0;orthogonalLoop=1;jettySize=auto;html=1;exitX=1;exitY=0.5;exitDx=0;exitDy=0;" edge="1" parent="1" source="ieElur-065_28JwLfEeW-53">
          <mxGeometry relative="1" as="geometry">
            <mxPoint x="860" y="605.3478260869567" as="targetPoint" />
          </mxGeometry>
        </mxCell>
        <mxCell id="ieElur-065_28JwLfEeW-53" value="&lt;b style=&quot;font-size: 15px;&quot;&gt;Grafana&lt;/b&gt;" style="whiteSpace=wrap;html=1;rounded=1;fillColor=#e51400;fontColor=#000000;strokeColor=#B20000;" vertex="1" parent="1">
          <mxGeometry x="665" y="563.8000000000001" width="160" height="82.4" as="geometry" />
        </mxCell>
        <mxCell id="ieElur-065_28JwLfEeW-56" value="visualization" style="rounded=1;whiteSpace=wrap;html=1;glass=0;shadow=0;backgroundOutline=0;fillOpacity=0;" vertex="1" parent="1">
          <mxGeometry x="870" y="600" width="97.6" height="50" as="geometry" />
        </mxCell>
        <mxCell id="ieElur-065_28JwLfEeW-57" value="visualization" style="rounded=1;whiteSpace=wrap;html=1;glass=0;shadow=0;backgroundOutline=0;fillOpacity=0;" vertex="1" parent="1">
          <mxGeometry x="870" y="540" width="97.6" height="50" as="geometry" />
        </mxCell>
        <mxCell id="ieElur-065_28JwLfEeW-58" value="Dashboard" style="rounded=0;whiteSpace=wrap;html=1;fillOpacity=0;dashed=1;dashPattern=8 8;verticalAlign=bottom;" vertex="1" parent="1">
          <mxGeometry x="861.3" y="530" width="115" height="150" as="geometry" />
        </mxCell>
        <mxCell id="ieElur-065_28JwLfEeW-61" value="" style="rounded=0;whiteSpace=wrap;html=1;opacity=0;" vertex="1" parent="1">
          <mxGeometry x="180" y="170" width="820" height="541.2" as="geometry" />
        </mxCell>
      </root>
    </mxGraphModel>
  </diagram>
  <diagram id="oHA86BTmZvsP1pobbOBt" name="mqtt">
    <mxGraphModel dx="846" dy="1188" grid="1" gridSize="10" guides="1" tooltips="1" connect="1" arrows="1" fold="1" page="1" pageScale="1" pageWidth="850" pageHeight="1100" math="0" shadow="0">
      <root>
        <mxCell id="0" />
        <mxCell id="1" parent="0" />
        <mxCell id="ZgOZ7CLqssexl5Lf1W2M-13" style="rounded=0;orthogonalLoop=1;jettySize=auto;html=1;exitX=0.5;exitY=0;exitDx=0;exitDy=0;entryX=0;entryY=0.5;entryDx=0;entryDy=0;" parent="1" source="ZgOZ7CLqssexl5Lf1W2M-1" target="ZgOZ7CLqssexl5Lf1W2M-5" edge="1">
          <mxGeometry relative="1" as="geometry" />
        </mxCell>
        <mxCell id="ZgOZ7CLqssexl5Lf1W2M-1" value="Temperature&lt;div&gt;&lt;span style=&quot;background-color: initial;&quot;&gt;Sensor&lt;/span&gt;&lt;/div&gt;" style="ellipse;whiteSpace=wrap;html=1;aspect=fixed;flipH=1;flipV=0;direction=south;fillColor=#647687;fontColor=#ffffff;strokeColor=#314354;" parent="1" vertex="1">
          <mxGeometry x="90" y="270" width="90" height="90" as="geometry" />
        </mxCell>
        <mxCell id="ZgOZ7CLqssexl5Lf1W2M-12" style="rounded=0;orthogonalLoop=1;jettySize=auto;html=1;exitX=1;exitY=0.5;exitDx=0;exitDy=0;entryX=0;entryY=0.5;entryDx=0;entryDy=0;" parent="1" source="ZgOZ7CLqssexl5Lf1W2M-2" target="ZgOZ7CLqssexl5Lf1W2M-5" edge="1">
          <mxGeometry relative="1" as="geometry" />
        </mxCell>
        <mxCell id="ZgOZ7CLqssexl5Lf1W2M-2" value="Sunlight&lt;div&gt;Sensor&lt;/div&gt;" style="ellipse;whiteSpace=wrap;html=1;aspect=fixed;flipH=0;flipV=1;fillColor=#647687;fontColor=#ffffff;strokeColor=#314354;" parent="1" vertex="1">
          <mxGeometry x="90" y="380" width="90" height="90" as="geometry" />
        </mxCell>
        <mxCell id="ZgOZ7CLqssexl5Lf1W2M-11" style="rounded=0;orthogonalLoop=1;jettySize=auto;html=1;exitX=1;exitY=0.5;exitDx=0;exitDy=0;entryX=0;entryY=0.5;entryDx=0;entryDy=0;" parent="1" source="ZgOZ7CLqssexl5Lf1W2M-3" target="ZgOZ7CLqssexl5Lf1W2M-5" edge="1">
          <mxGeometry relative="1" as="geometry" />
        </mxCell>
        <mxCell id="ZgOZ7CLqssexl5Lf1W2M-3" value="Smart fridge" style="ellipse;whiteSpace=wrap;html=1;aspect=fixed;flipH=0;flipV=1;fillColor=#647687;fontColor=#ffffff;strokeColor=#314354;" parent="1" vertex="1">
          <mxGeometry x="90" y="490" width="90" height="90" as="geometry" />
        </mxCell>
        <mxCell id="ZgOZ7CLqssexl5Lf1W2M-10" style="rounded=0;orthogonalLoop=1;jettySize=auto;html=1;exitX=1;exitY=0.5;exitDx=0;exitDy=0;entryX=0;entryY=0.5;entryDx=0;entryDy=0;" parent="1" source="ZgOZ7CLqssexl5Lf1W2M-4" target="ZgOZ7CLqssexl5Lf1W2M-5" edge="1">
          <mxGeometry relative="1" as="geometry" />
        </mxCell>
        <mxCell id="ZgOZ7CLqssexl5Lf1W2M-4" value="Smart lights" style="ellipse;whiteSpace=wrap;html=1;aspect=fixed;flipH=0;flipV=1;fillColor=#647687;fontColor=#ffffff;strokeColor=#314354;" parent="1" vertex="1">
          <mxGeometry x="90" y="600" width="90" height="90" as="geometry" />
        </mxCell>
        <mxCell id="ZgOZ7CLqssexl5Lf1W2M-29" style="edgeStyle=orthogonalEdgeStyle;rounded=0;orthogonalLoop=1;jettySize=auto;html=1;exitX=1;exitY=0;exitDx=0;exitDy=0;entryX=0.5;entryY=1;entryDx=0;entryDy=0;" parent="1" source="ZgOZ7CLqssexl5Lf1W2M-5" target="ZgOZ7CLqssexl5Lf1W2M-23" edge="1">
          <mxGeometry relative="1" as="geometry" />
        </mxCell>
        <mxCell id="ZgOZ7CLqssexl5Lf1W2M-30" style="edgeStyle=orthogonalEdgeStyle;rounded=0;orthogonalLoop=1;jettySize=auto;html=1;exitX=1;exitY=1;exitDx=0;exitDy=0;entryX=0.5;entryY=1;entryDx=0;entryDy=0;" parent="1" source="ZgOZ7CLqssexl5Lf1W2M-5" target="ZgOZ7CLqssexl5Lf1W2M-24" edge="1">
          <mxGeometry relative="1" as="geometry" />
        </mxCell>
        <mxCell id="ZgOZ7CLqssexl5Lf1W2M-5" value="MQTT&lt;div style=&quot;font-size: 14px;&quot;&gt;Broker&lt;/div&gt;" style="rounded=1;whiteSpace=wrap;html=1;fontStyle=1;fontSize=14;fillColor=#f0a30a;fontColor=#000000;strokeColor=#BD7000;" parent="1" vertex="1">
          <mxGeometry x="350" y="450" width="120" height="60" as="geometry" />
        </mxCell>
        <mxCell id="ZgOZ7CLqssexl5Lf1W2M-14" value="Publish: &quot;24&quot;" style="text;html=1;align=center;verticalAlign=middle;resizable=0;points=[];autosize=1;strokeColor=none;fillColor=none;rotation=46;" parent="1" vertex="1">
          <mxGeometry x="205" y="360" width="90" height="30" as="geometry" />
        </mxCell>
        <mxCell id="ZgOZ7CLqssexl5Lf1W2M-16" value="Publish: &quot;300&quot;" style="text;html=1;align=center;verticalAlign=middle;resizable=0;points=[];autosize=1;strokeColor=none;fillColor=none;rotation=19;" parent="1" vertex="1">
          <mxGeometry x="195" y="420" width="100" height="30" as="geometry" />
        </mxCell>
        <mxCell id="ZgOZ7CLqssexl5Lf1W2M-17" value="Topic: &quot;temp&quot;" style="text;html=1;align=center;verticalAlign=middle;resizable=0;points=[];autosize=1;strokeColor=none;fillColor=none;rotation=46;" parent="1" vertex="1">
          <mxGeometry x="190" y="370" width="90" height="30" as="geometry" />
        </mxCell>
        <mxCell id="ZgOZ7CLqssexl5Lf1W2M-18" value="Topic: &quot;lumens&lt;span style=&quot;background-color: initial;&quot;&gt;&quot;&lt;/span&gt;" style="text;html=1;align=center;verticalAlign=middle;resizable=0;points=[];autosize=1;strokeColor=none;fillColor=none;rotation=19;" parent="1" vertex="1">
          <mxGeometry x="180" y="440" width="110" height="30" as="geometry" />
        </mxCell>
        <mxCell id="ZgOZ7CLqssexl5Lf1W2M-19" value="Publish: &quot;-18&quot;" style="text;html=1;align=center;verticalAlign=middle;resizable=0;points=[];autosize=1;strokeColor=none;fillColor=none;rotation=341;" parent="1" vertex="1">
          <mxGeometry x="190" y="490" width="100" height="30" as="geometry" />
        </mxCell>
        <mxCell id="ZgOZ7CLqssexl5Lf1W2M-20" value="Topic: &quot;freezer-temp&lt;span style=&quot;background-color: initial;&quot;&gt;&quot;&lt;/span&gt;" style="text;html=1;align=center;verticalAlign=middle;resizable=0;points=[];autosize=1;strokeColor=none;fillColor=none;rotation=341;" parent="1" vertex="1">
          <mxGeometry x="185" y="510" width="130" height="30" as="geometry" />
        </mxCell>
        <mxCell id="ZgOZ7CLqssexl5Lf1W2M-21" value="Publish: &quot;on&quot;" style="text;html=1;align=center;verticalAlign=middle;resizable=0;points=[];autosize=1;strokeColor=none;fillColor=none;rotation=314;" parent="1" vertex="1">
          <mxGeometry x="190" y="560" width="90" height="30" as="geometry" />
        </mxCell>
        <mxCell id="ZgOZ7CLqssexl5Lf1W2M-22" value="Topic: &quot;lights/kitchen&quot;" style="text;html=1;align=center;verticalAlign=middle;resizable=0;points=[];autosize=1;strokeColor=none;fillColor=none;rotation=314;" parent="1" vertex="1">
          <mxGeometry x="175" y="580" width="140" height="30" as="geometry" />
        </mxCell>
        <mxCell id="ZgOZ7CLqssexl5Lf1W2M-25" style="rounded=0;orthogonalLoop=1;jettySize=auto;html=1;exitX=1;exitY=1;exitDx=0;exitDy=0;entryX=1;entryY=0.5;entryDx=0;entryDy=0;dashed=1;" parent="1" source="ZgOZ7CLqssexl5Lf1W2M-23" target="ZgOZ7CLqssexl5Lf1W2M-5" edge="1">
          <mxGeometry relative="1" as="geometry" />
        </mxCell>
        <mxCell id="ZgOZ7CLqssexl5Lf1W2M-33" style="edgeStyle=orthogonalEdgeStyle;rounded=0;orthogonalLoop=1;jettySize=auto;html=1;exitX=1;exitY=0.5;exitDx=0;exitDy=0;entryX=1;entryY=0.5;entryDx=0;entryDy=0;" parent="1" source="ZgOZ7CLqssexl5Lf1W2M-23" target="ZgOZ7CLqssexl5Lf1W2M-5" edge="1">
          <mxGeometry relative="1" as="geometry" />
        </mxCell>
        <mxCell id="ZgOZ7CLqssexl5Lf1W2M-23" value="Home Assistant" style="ellipse;whiteSpace=wrap;html=1;aspect=fixed;flipH=1;flipV=0;direction=south;fillColor=#60a917;fontColor=#ffffff;strokeColor=#2D7600;" parent="1" vertex="1">
          <mxGeometry x="620" y="300" width="90" height="90" as="geometry" />
        </mxCell>
        <mxCell id="ZgOZ7CLqssexl5Lf1W2M-26" style="rounded=0;orthogonalLoop=1;jettySize=auto;html=1;exitX=0;exitY=1;exitDx=0;exitDy=0;entryX=1;entryY=0.5;entryDx=0;entryDy=0;dashed=1;" parent="1" source="ZgOZ7CLqssexl5Lf1W2M-24" target="ZgOZ7CLqssexl5Lf1W2M-5" edge="1">
          <mxGeometry relative="1" as="geometry" />
        </mxCell>
        <mxCell id="ZgOZ7CLqssexl5Lf1W2M-24" value="Smart&lt;div&gt;Greenhouse&lt;/div&gt;" style="ellipse;whiteSpace=wrap;html=1;aspect=fixed;flipH=1;flipV=0;direction=south;fillColor=#60a917;fontColor=#ffffff;strokeColor=#2D7600;" parent="1" vertex="1">
          <mxGeometry x="620" y="570" width="90" height="90" as="geometry" />
        </mxCell>
        <mxCell id="ZgOZ7CLqssexl5Lf1W2M-27" value="Subscribed: &quot;temp&quot;, &quot;lumens&lt;span style=&quot;background-color: initial;&quot;&gt;&quot;&lt;/span&gt;" style="text;html=1;align=center;verticalAlign=middle;resizable=0;points=[];autosize=1;strokeColor=none;fillColor=none;rotation=32;" parent="1" vertex="1">
          <mxGeometry x="470" y="510" width="180" height="30" as="geometry" />
        </mxCell>
        <mxCell id="ZgOZ7CLqssexl5Lf1W2M-28" value="&lt;span style=&quot;color: rgb(240, 240, 240); font-family: Helvetica; font-size: 12px; font-style: normal; font-variant-ligatures: normal; font-variant-caps: normal; font-weight: 400; letter-spacing: normal; orphans: 2; text-align: center; text-indent: 0px; text-transform: none; widows: 2; word-spacing: 0px; -webkit-text-stroke-width: 0px; white-space: nowrap; background-color: rgb(27, 29, 30); text-decoration-thickness: initial; text-decoration-style: initial; text-decoration-color: initial; display: inline !important; float: none;&quot;&gt;Subscribed: &quot;lights/kitchen&lt;/span&gt;&lt;span style=&quot;forced-color-adjust: none; border-color: rgb(0, 0, 0); color: rgb(240, 240, 240); font-family: Helvetica; font-size: 12px; font-style: normal; font-variant-ligatures: normal; font-variant-caps: normal; font-weight: 400; letter-spacing: normal; orphans: 2; text-align: center; text-indent: 0px; text-transform: none; widows: 2; word-spacing: 0px; -webkit-text-stroke-width: 0px; white-space: nowrap; background-color: initial; text-decoration-thickness: initial; text-decoration-style: initial; text-decoration-color: initial;&quot;&gt;&quot;&lt;/span&gt;" style="text;whiteSpace=wrap;html=1;rotation=328;" parent="1" vertex="1">
          <mxGeometry x="470" y="400" width="160" height="30" as="geometry" />
        </mxCell>
        <mxCell id="ZgOZ7CLqssexl5Lf1W2M-31" value="Publish: &quot;on&quot;" style="text;html=1;align=center;verticalAlign=middle;resizable=0;points=[];autosize=1;strokeColor=none;fillColor=none;" parent="1" vertex="1">
          <mxGeometry x="490" y="320" width="90" height="30" as="geometry" />
        </mxCell>
        <mxCell id="ZgOZ7CLqssexl5Lf1W2M-34" value="&lt;span style=&quot;color: rgb(240, 240, 240); font-family: Helvetica; font-size: 12px; font-style: normal; font-variant-ligatures: normal; font-variant-caps: normal; font-weight: 400; letter-spacing: normal; orphans: 2; text-align: center; text-indent: 0px; text-transform: none; widows: 2; word-spacing: 0px; -webkit-text-stroke-width: 0px; white-space: nowrap; background-color: rgb(27, 29, 30); text-decoration-thickness: initial; text-decoration-style: initial; text-decoration-color: initial; display: inline !important; float: none;&quot;&gt;Publish: &quot;24&lt;/span&gt;&lt;span style=&quot;text-align: center; text-wrap: nowrap;&quot;&gt;&quot;&lt;/span&gt;" style="text;whiteSpace=wrap;html=1;" parent="1" vertex="1">
          <mxGeometry x="500" y="590" width="100" height="20" as="geometry" />
        </mxCell>
        <mxCell id="ZgOZ7CLqssexl5Lf1W2M-35" value="&lt;span style=&quot;color: rgb(240, 240, 240); font-family: Helvetica; font-size: 12px; font-style: normal; font-variant-ligatures: normal; font-variant-caps: normal; font-weight: 400; letter-spacing: normal; orphans: 2; text-align: center; text-indent: 0px; text-transform: none; widows: 2; word-spacing: 0px; -webkit-text-stroke-width: 0px; white-space: nowrap; background-color: rgb(27, 29, 30); text-decoration-thickness: initial; text-decoration-style: initial; text-decoration-color: initial; display: inline !important; float: none;&quot;&gt;Publish: &quot;300&quot;&lt;/span&gt;" style="text;whiteSpace=wrap;html=1;" parent="1" vertex="1">
          <mxGeometry x="500" y="610" width="90" height="20" as="geometry" />
        </mxCell>
        <mxCell id="ZgOZ7CLqssexl5Lf1W2M-36" value="&lt;span style=&quot;color: rgb(240, 240, 240); font-family: Helvetica; font-size: 12px; font-style: normal; font-variant-ligatures: normal; font-variant-caps: normal; font-weight: 400; letter-spacing: normal; orphans: 2; text-align: center; text-indent: 0px; text-transform: none; widows: 2; word-spacing: 0px; -webkit-text-stroke-width: 0px; white-space: nowrap; background-color: rgb(27, 29, 30); text-decoration-thickness: initial; text-decoration-style: initial; text-decoration-color: initial; display: inline !important; float: none;&quot;&gt;Publish: &quot;off&quot;&lt;/span&gt;" style="text;whiteSpace=wrap;html=1;" parent="1" vertex="1">
          <mxGeometry x="560" y="454" width="70" height="30" as="geometry" />
        </mxCell>
        <mxCell id="ZgOZ7CLqssexl5Lf1W2M-37" value="&lt;span style=&quot;color: rgb(240, 240, 240); font-family: Helvetica; font-size: 12px; font-style: normal; font-variant-ligatures: normal; font-variant-caps: normal; font-weight: 400; letter-spacing: normal; orphans: 2; text-align: center; text-indent: 0px; text-transform: none; widows: 2; word-spacing: 0px; -webkit-text-stroke-width: 0px; white-space: nowrap; background-color: rgb(27, 29, 30); text-decoration-thickness: initial; text-decoration-style: initial; text-decoration-color: initial; display: inline !important; float: none;&quot;&gt;Topic: &quot;lights/kitchen&lt;/span&gt;&lt;span style=&quot;text-align: center; text-wrap: nowrap;&quot;&gt;&quot;&lt;/span&gt;" style="text;whiteSpace=wrap;html=1;" parent="1" vertex="1">
          <mxGeometry x="560" y="480" width="70" height="30" as="geometry" />
        </mxCell>
        <mxCell id="ZgOZ7CLqssexl5Lf1W2M-39" value="&lt;span style=&quot;font-size: 17px;&quot;&gt;&lt;b&gt;MQTT protocol workflow&lt;/b&gt;&lt;/span&gt;" style="text;html=1;align=center;verticalAlign=middle;resizable=0;points=[];autosize=1;strokeColor=none;fillColor=none;" parent="1" vertex="1">
          <mxGeometry x="300" y="210" width="220" height="30" as="geometry" />
        </mxCell>
        <mxCell id="ZgOZ7CLqssexl5Lf1W2M-40" value="" style="rounded=0;whiteSpace=wrap;html=1;opacity=0;" parent="1" vertex="1">
          <mxGeometry x="80" y="200" width="640" height="520" as="geometry" />
        </mxCell>
      </root>
    </mxGraphModel>
  </diagram>
  <diagram id="xRyI5g375r2VzWKPozvE" name="implementation">
    <mxGraphModel dx="1877" dy="1684" grid="1" gridSize="10" guides="1" tooltips="1" connect="1" arrows="1" fold="1" page="1" pageScale="1" pageWidth="850" pageHeight="1100" math="0" shadow="0">
      <root>
        <mxCell id="0" />
        <mxCell id="1" parent="0" />
        <mxCell id="hsj_Y1sCRuSXAYrRfa0T-1" value="&lt;span style=&quot;font-size: 17px;&quot;&gt;&lt;b&gt;Implementation Diagram&lt;/b&gt;&lt;/span&gt;" style="text;html=1;align=center;verticalAlign=middle;resizable=0;points=[];autosize=1;strokeColor=none;fillColor=none;" vertex="1" parent="1">
          <mxGeometry x="315" y="280" width="220" height="30" as="geometry" />
        </mxCell>
        <mxCell id="e-jTuqCP0OtijPtfdj3K-2" value="&lt;b&gt;MQTT Broker&lt;/b&gt;&lt;div&gt;&lt;b&gt;Container&lt;/b&gt;&lt;/div&gt;" style="rounded=1;whiteSpace=wrap;html=1;fillColor=#f0a30a;fontColor=#000000;strokeColor=#BD7000;" vertex="1" parent="1">
          <mxGeometry x="95" y="554.5" width="120" height="68" as="geometry" />
        </mxCell>
        <mxCell id="e-jTuqCP0OtijPtfdj3K-3" value="&lt;font color=&quot;#ffffff&quot;&gt;&lt;b&gt;Sensor&lt;/b&gt;&lt;/font&gt;&lt;div&gt;&lt;font color=&quot;#ffffff&quot;&gt;&lt;b&gt;Container&lt;/b&gt;&lt;/font&gt;&lt;/div&gt;" style="ellipse;whiteSpace=wrap;html=1;aspect=fixed;" vertex="1" parent="1">
          <mxGeometry x="-5" y="367.25" width="70" height="70" as="geometry" />
        </mxCell>
        <mxCell id="e-jTuqCP0OtijPtfdj3K-4" value="&lt;font color=&quot;#ffffff&quot;&gt;&lt;b&gt;Sensor&lt;/b&gt;&lt;/font&gt;&lt;div&gt;&lt;font color=&quot;#ffffff&quot;&gt;&lt;b&gt;Container&lt;/b&gt;&lt;/font&gt;&lt;/div&gt;" style="ellipse;whiteSpace=wrap;html=1;aspect=fixed;" vertex="1" parent="1">
          <mxGeometry x="59" y="367.25" width="70" height="70" as="geometry" />
        </mxCell>
        <mxCell id="e-jTuqCP0OtijPtfdj3K-5" value="&lt;font color=&quot;#ffffff&quot;&gt;&lt;b&gt;Sensor&lt;/b&gt;&lt;/font&gt;&lt;div&gt;&lt;font color=&quot;#ffffff&quot;&gt;&lt;b&gt;Container&lt;/b&gt;&lt;/font&gt;&lt;/div&gt;" style="ellipse;whiteSpace=wrap;html=1;aspect=fixed;" vertex="1" parent="1">
          <mxGeometry x="123" y="367.25" width="70" height="70" as="geometry" />
        </mxCell>
        <mxCell id="e-jTuqCP0OtijPtfdj3K-6" value="&lt;font color=&quot;#ffffff&quot;&gt;&lt;b&gt;Sensor&lt;/b&gt;&lt;/font&gt;&lt;div&gt;&lt;font color=&quot;#ffffff&quot;&gt;&lt;b&gt;Container&lt;/b&gt;&lt;/font&gt;&lt;/div&gt;" style="ellipse;whiteSpace=wrap;html=1;aspect=fixed;" vertex="1" parent="1">
          <mxGeometry x="186" y="367.25" width="70" height="70" as="geometry" />
        </mxCell>
        <mxCell id="e-jTuqCP0OtijPtfdj3K-7" value="&lt;font color=&quot;#ffffff&quot;&gt;&lt;b&gt;Sensor&lt;/b&gt;&lt;/font&gt;&lt;div&gt;&lt;font color=&quot;#ffffff&quot;&gt;&lt;b&gt;Container&lt;/b&gt;&lt;/font&gt;&lt;/div&gt;" style="ellipse;whiteSpace=wrap;html=1;aspect=fixed;" vertex="1" parent="1">
          <mxGeometry x="250" y="367.25" width="70" height="70" as="geometry" />
        </mxCell>
        <mxCell id="e-jTuqCP0OtijPtfdj3K-10" style="edgeStyle=orthogonalEdgeStyle;rounded=0;orthogonalLoop=1;jettySize=auto;html=1;exitX=0.1;exitY=0.5;exitDx=0;exitDy=0;exitPerimeter=0;entryX=0.5;entryY=0;entryDx=0;entryDy=0;" edge="1" parent="1" source="e-jTuqCP0OtijPtfdj3K-9" target="e-jTuqCP0OtijPtfdj3K-2">
          <mxGeometry relative="1" as="geometry" />
        </mxCell>
        <mxCell id="e-jTuqCP0OtijPtfdj3K-9" value="" style="shape=curlyBracket;whiteSpace=wrap;html=1;rounded=1;flipH=1;labelPosition=right;verticalLabelPosition=middle;align=left;verticalAlign=middle;rotation=90;" vertex="1" parent="1">
          <mxGeometry x="145.75" y="300" width="20" height="322.5" as="geometry" />
        </mxCell>
        <mxCell id="e-jTuqCP0OtijPtfdj3K-11" value="Publish" style="text;html=1;align=center;verticalAlign=middle;resizable=0;points=[];autosize=1;strokeColor=none;fillColor=none;" vertex="1" parent="1">
          <mxGeometry x="155" y="488.5" width="60" height="30" as="geometry" />
        </mxCell>
        <mxCell id="e-jTuqCP0OtijPtfdj3K-12" value="&lt;b&gt;Controller&lt;/b&gt;&lt;div&gt;&lt;b&gt;Container&lt;/b&gt;&lt;/div&gt;" style="rounded=1;whiteSpace=wrap;html=1;fillColor=#6d8764;fontColor=#ffffff;strokeColor=#3A5431;" vertex="1" parent="1">
          <mxGeometry x="335" y="554.5" width="120" height="68" as="geometry" />
        </mxCell>
        <mxCell id="e-jTuqCP0OtijPtfdj3K-14" value="" style="shape=flexArrow;endArrow=classic;startArrow=classic;html=1;rounded=0;exitX=1;exitY=0.5;exitDx=0;exitDy=0;entryX=0;entryY=0.5;entryDx=0;entryDy=0;" edge="1" parent="1" source="e-jTuqCP0OtijPtfdj3K-2" target="e-jTuqCP0OtijPtfdj3K-12">
          <mxGeometry width="100" height="100" relative="1" as="geometry">
            <mxPoint x="355" y="668.5" as="sourcePoint" />
            <mxPoint x="455" y="568.5" as="targetPoint" />
          </mxGeometry>
        </mxCell>
        <mxCell id="e-jTuqCP0OtijPtfdj3K-15" value="Subscribe" style="text;html=1;align=center;verticalAlign=middle;resizable=0;points=[];autosize=1;strokeColor=none;fillColor=none;" vertex="1" parent="1">
          <mxGeometry x="235" y="554.5" width="80" height="30" as="geometry" />
        </mxCell>
        <mxCell id="e-jTuqCP0OtijPtfdj3K-16" value="Publish" style="text;html=1;align=center;verticalAlign=middle;resizable=0;points=[];autosize=1;strokeColor=none;fillColor=none;" vertex="1" parent="1">
          <mxGeometry x="245" y="592.5" width="60" height="30" as="geometry" />
        </mxCell>
        <mxCell id="e-jTuqCP0OtijPtfdj3K-19" style="edgeStyle=orthogonalEdgeStyle;rounded=0;orthogonalLoop=1;jettySize=auto;html=1;exitX=0;exitY=0.5;exitDx=0;exitDy=0;entryX=1;entryY=0.5;entryDx=0;entryDy=0;" edge="1" parent="1" source="e-jTuqCP0OtijPtfdj3K-18" target="e-jTuqCP0OtijPtfdj3K-12">
          <mxGeometry relative="1" as="geometry" />
        </mxCell>
        <mxCell id="e-jTuqCP0OtijPtfdj3K-22" style="edgeStyle=orthogonalEdgeStyle;rounded=0;orthogonalLoop=1;jettySize=auto;html=1;exitX=1;exitY=0.5;exitDx=0;exitDy=0;entryX=0;entryY=0.5;entryDx=0;entryDy=0;" edge="1" parent="1" source="e-jTuqCP0OtijPtfdj3K-18" target="e-jTuqCP0OtijPtfdj3K-21">
          <mxGeometry relative="1" as="geometry" />
        </mxCell>
        <mxCell id="e-jTuqCP0OtijPtfdj3K-18" value="&lt;b&gt;Prometheus&lt;/b&gt;" style="rounded=1;whiteSpace=wrap;html=1;fillColor=#76608a;fontColor=#ffffff;strokeColor=#432D57;" vertex="1" parent="1">
          <mxGeometry x="535" y="554.5" width="120" height="68" as="geometry" />
        </mxCell>
        <mxCell id="e-jTuqCP0OtijPtfdj3K-20" value="Scrape" style="text;html=1;align=center;verticalAlign=middle;resizable=0;points=[];autosize=1;strokeColor=none;fillColor=none;" vertex="1" parent="1">
          <mxGeometry x="468" y="562.5" width="60" height="30" as="geometry" />
        </mxCell>
        <mxCell id="e-jTuqCP0OtijPtfdj3K-28" style="edgeStyle=orthogonalEdgeStyle;rounded=0;orthogonalLoop=1;jettySize=auto;html=1;exitX=0.5;exitY=0;exitDx=0;exitDy=0;entryX=0.5;entryY=1;entryDx=0;entryDy=0;" edge="1" parent="1" source="e-jTuqCP0OtijPtfdj3K-21" target="e-jTuqCP0OtijPtfdj3K-27">
          <mxGeometry relative="1" as="geometry" />
        </mxCell>
        <mxCell id="e-jTuqCP0OtijPtfdj3K-21" value="&lt;b&gt;Grafana&lt;/b&gt;" style="rounded=1;whiteSpace=wrap;html=1;fillColor=#e3c800;fontColor=#000000;strokeColor=#B09500;" vertex="1" parent="1">
          <mxGeometry x="735" y="554.5" width="120" height="68" as="geometry" />
        </mxCell>
        <mxCell id="e-jTuqCP0OtijPtfdj3K-24" value="" style="image;aspect=fixed;html=1;points=[];align=center;fontSize=12;image=img/lib/azure2/general/Dashboard2.svg;" vertex="1" parent="1">
          <mxGeometry x="761" y="373.25" width="68" height="48" as="geometry" />
        </mxCell>
        <mxCell id="e-jTuqCP0OtijPtfdj3K-27" value="Dashboards" style="rounded=0;whiteSpace=wrap;html=1;fillOpacity=0;verticalAlign=bottom;" vertex="1" parent="1">
          <mxGeometry x="755" y="367.25" width="80" height="80" as="geometry" />
        </mxCell>
        <mxCell id="e-jTuqCP0OtijPtfdj3K-29" value="" style="rounded=0;whiteSpace=wrap;html=1;opacity=0;" vertex="1" parent="1">
          <mxGeometry x="-20" y="277.5" width="890" height="367.5" as="geometry" />
        </mxCell>
      </root>
    </mxGraphModel>
  </diagram>
</mxfile>
